<?xml version="1.0" encoding="UTF-8" standalone="no"?>
<!-- Created with Inkscape (http://www.inkscape.org/) -->

<svg
   width="128"
   height="128"
   viewBox="0 0 33.866666 33.866666"
   version="1.1"
   id="svg1"
   xml:space="preserve"
   inkscape:version="1.3.2 (091e20e, 2023-11-25, custom)"
   sodipodi:docname="favicon.svg"
   inkscape:export-filename="favicon.png"
   inkscape:export-xdpi="300"
   inkscape:export-ydpi="300"
   xmlns:inkscape="http://www.inkscape.org/namespaces/inkscape"
   xmlns:sodipodi="http://sodipodi.sourceforge.net/DTD/sodipodi-0.dtd"
   xmlns="http://www.w3.org/2000/svg"
   xmlns:svg="http://www.w3.org/2000/svg"><sodipodi:namedview
     id="namedview1"
     pagecolor="#ffffff"
     bordercolor="#666666"
     borderopacity="1.0"
     inkscape:showpageshadow="2"
     inkscape:pageopacity="0.0"
     inkscape:pagecheckerboard="0"
     inkscape:deskcolor="#d1d1d1"
     inkscape:document-units="px"
     inkscape:zoom="2.9897026"
     inkscape:cx="80.944507"
     inkscape:cy="117.23574"
     inkscape:window-width="1920"
     inkscape:window-height="1017"
     inkscape:window-x="1912"
     inkscape:window-y="-8"
     inkscape:window-maximized="1"
     inkscape:current-layer="layer1" /><defs
     id="defs1" /><g
     inkscape:label="Katman 1"
     inkscape:groupmode="layer"
     id="layer1"><g
       id="g17"
       transform="matrix(0.24401163,0,0,0.24401215,33.165385,-10.910229)"><path
         style="fill:#000000"
         d="m -2.5568414,119.60636 c 2.25490999,-1.3749 2.17487999,-4.71384 -0.14761,-6.1581 -0.95763,-0.59551 -1.04008,-0.59999 -12.4373796,-0.67632 -9.5016,-0.0636 -11.57049,-0.013 -12.03854,0.29471 -0.52891,0.34769 -5.22292,6.24365 -5.41588,6.80266 -0.056,0.16228 5.25365,0.25515 14.55208,0.25452 14.0537596,-9.5e-4 14.6742096,-0.0217 15.4873296,-0.51747 z"
         id="path17" /><path
         style="fill:#22a3de;fill-opacity:1"
         d="m -33.694861,120.45555 c 0.006,-0.29609 5.46546,-7.2688 6.11163,-7.80521 0.51244,-0.42541 1.48503,-0.46255 11.97167,-0.45721 12.6741796,0.006 12.6018496,-0.003 14.3074296,1.81264 0.63101999,0.67163 0.79683999,1.11248 0.88331999,2.34847 0.0888,1.26984 0.004,1.6704 -0.51227,2.42078 -0.34029999,0.49453 -1.03358999,1.11961 -1.54063999,1.38906 -0.86636,0.46038 -1.83498,0.4899 -16.0734396,0.4899 -8.33333,0 -15.1498,-0.0893 -15.1477,-0.19843 z"
         id="path16" /><path
         style="fill:#000000"
         d="m -64.902221,107.4244 c 1.3753,-0.38206 3.04006,-1.92279 3.56623,-3.30055 0.67302,-1.76227 0.43958,-4.05639 -0.55943,-5.4978 -0.95709,-1.38092 -3.16129,-2.580941 -4.72518,-2.572503 -3.79927,0.0205 -6.5509,3.932223 -5.33696,7.587033 0.9882,2.97519 4.05176,4.6182 7.05534,3.78382 z"
         id="path15" /><path
         style="fill:#20a2dc;fill-opacity:1"
         d="m -112.2189,128.87551 c -2.03204,-1.88108 -4.06469,-3.8691 -4.517,-4.41783 -1.18114,-1.43293 -1.87785,-3.74801 -2.07032,-6.87947 l -0.16466,-2.67891 -1.4295,-0.14754 c -1.64727,-0.17001 -3.49342,-1.14611 -4.29391,-2.27028 -0.93662,-1.31537 -1.12744,-3.09096 -1.03362,-9.61803 0.0817,-5.68711 0.13143,-6.23459 0.65465,-7.212589 1.01205,-1.89174 2.50231,-2.778125 4.67078,-2.778125 h 1.42873 l 0.16667,-2.315104 c 0.32375,-4.496932 1.51169,-7.457952 4.01361,-10.004207 1.77593,-1.8074 4.17592,-3.129457 6.45226,-3.554291 0.8158,-0.152252 6.33093,-0.26598 12.898437,-0.26598 h 11.473261 V 71.076712 65.42027 l -0.790893,-0.327599 c -1.06669,-0.441838 -2.507235,-2.083288 -2.931234,-3.340038 -0.762339,-2.259605 -0.290781,-4.985584 1.145398,-6.621301 1.286686,-1.465454 2.675756,-2.061423 4.82569,-2.07042 2.25005,-0.0094 3.7526,0.716309 5.07367,2.450556 2.25079,2.954763 1.64699,7.228886 -1.29453,9.163488 l -1.23677,0.813407 -0.0144,5.622395 -0.0144,5.622396 h 11.71837 c 12.70731,0 13.47264,0.07096 16.08193,1.491113 4.27574,2.327148 6.66681,6.462737 7.04239,12.180502 l 0.16212,2.467967 h 1.33177 c 1.89202,0 3.48986,0.841844 4.43926,2.338888 0.80875,1.275266 0.95669,2.454316 0.42364,3.376326 -0.17675,0.30571 -7.83959,8.015 -17.02854,17.13177 l -16.70722,16.57593 h -18.390505 -18.390514 z"
         id="path7" /><path
         style="fill:#075480;fill-opacity:1"
         d="m -68.096221,107.98677 c -2.26733,-0.74238 -3.74741,-2.23853 -4.38535,-4.43297 -1.77084,-6.09147 5.69952,-10.629265 10.15826,-6.17053 3.77499,3.775 1.52729,10.31028 -3.68386,10.71099 -0.78424,0.0603 -1.72431,0.0119 -2.08905,-0.10749 z"
         id="path14" /><path
         style="fill:#000000"
         d="m -94.006613,106.9618 c 2.060436,-1.04482 2.980939,-2.46048 3.104127,-4.7739 0.121318,-2.27831 -0.600698,-3.77276 -2.415929,-5.00056 -3.91127,-2.645535 -8.991135,-7e-4 -8.991135,4.68123 0,4.37789 4.395894,7.07444 8.302937,5.09323 z"
         id="path13" /><path
         style="fill:#075480;fill-opacity:1"
         d="m -98.588277,107.84107 c -2.579053,-0.92037 -4.166653,-3.19605 -4.166653,-5.9725 0,-5.424316 6.155733,-8.255214 10.203381,-4.69233 1.549157,1.36362 2.218604,2.77892 2.226227,4.70653 0.01694,4.28434 -4.277099,7.38072 -8.262955,5.9583 z"
         id="path12" /><path
         style="fill:#000000"
         d="m -79.139881,118.41088 c 2.19116,-0.57072 3.87637,-1.43581 5.01493,-2.57438 0.79702,-0.79701 1.00336,-1.20311 1.00336,-1.9747 0,-1.15063 -0.62171,-1.93906 -1.529,-1.93906 -0.35928,0 -1.36485,0.47519 -2.23461,1.05599 -3.62822,2.42284 -7.312906,2.42414 -10.06283,0.004 -0.702505,-0.61837 -1.472709,-1.05955 -1.849719,-1.05955 -1.464915,0 -2.102659,2.00124 -1.078255,3.38356 2.082857,2.8106 6.718395,4.15107 10.736124,3.10458 z"
         id="path11" /><path
         style="fill:#075480;fill-opacity:1"
         d="m -84.961521,118.93929 c -3.750784,-1.05602 -5.887157,-3.01442 -5.887157,-5.39671 0,-0.82165 0.15279,-1.17246 0.69714,-1.60064 1.116061,-0.8779 2.086027,-0.71182 3.554686,0.60863 2.66675,2.39764 6.562981,2.30551 9.742181,-0.23037 1.43776,-1.14682 2.65017,-1.23984 3.61281,-0.2772 0.8017,0.8017 0.86881,2.31983 0.1507,3.40901 -0.71459,1.08385 -2.73649,2.43624 -4.61813,3.08894 -2.12238,0.7362 -5.410715,0.91682 -7.25223,0.39834 z"
         id="path10" /><path
         style="fill:#075480;fill-opacity:1"
         d="m -69.562341,129.13332 2.62328,-2.63316 -19.693871,-0.0788 c -19.542108,-0.0782 -19.703408,-0.0832 -20.930978,-0.65055 -1.75217,-0.80977 -3.52464,-2.5441 -4.37987,-4.28562 l -0.73302,-1.49264 V 104.5144 89.036278 l 0.63124,-1.396849 c 0.3764,-0.832903 1.15402,-1.866865 1.92611,-2.56104 2.3665,-2.127693 0.6757,-2.014704 28.946009,-1.934343 l 25.11747,0.0714 1.11745,0.597105 c 1.58942,0.849297 2.94283,2.298307 3.74564,4.010221 l 0.69316,1.47809 0.083,10.252599 c 0.0456,5.638939 0.1682,10.252609 0.27237,10.252609 0.10417,0 2.85138,-2.6716 6.10492,-5.93689 5.78008,-5.800969 5.91151,-5.956929 5.7405,-6.811949 -0.22593,-1.129644 -1.40954,-2.604098 -2.56227,-3.191895 -0.5442,-0.277493 -1.50151,-0.462774 -2.39234,-0.463021 l -1.4851,-4.11e-4 -0.18509,-2.52148 c -0.49871,-6.794003 -3.07799,-10.628185 -8.68616,-12.912226 -1.3304,-0.541835 -1.90126,-0.570812 -13.82312,-0.701672 l -12.43542,-0.136496 -0.0749,-5.55625 c -0.0782,-5.79966 -0.001,-6.746875 0.54879,-6.746875 0.18236,0 0.77886,-0.368704 1.32556,-0.819342 3.56915,-2.941996 2.54002,-8.492765 -1.86956,-10.083716 -1.57486,-0.568202 -1.87024,-0.572154 -3.426402,-0.04584 -1.826566,0.617764 -2.645791,1.292633 -3.417303,2.815139 -0.577542,1.139723 -0.666178,1.615184 -0.581263,3.117978 0.120333,2.129604 1.003713,3.619734 2.753894,4.645408 0.700646,0.410606 1.181494,0.912189 1.290379,1.346022 0.197405,0.786525 0.171045,7.323384 -0.03948,9.789714 l -0.139752,1.637234 -12.340205,0.09337 c -11.709737,0.0886 -12.414557,0.121353 -13.795417,0.641164 -2.50368,0.942485 -4.40906,2.315649 -5.69358,4.103233 -1.96445,2.733799 -2.52654,4.456053 -2.74937,8.424227 l -0.156,2.778125 -1.45521,0.07339 c -0.80037,0.04036 -1.6338,0.147646 -1.85209,0.238401 -0.21828,0.09076 -0.53038,0.193773 -0.69355,0.228929 -0.63208,0.136181 -1.58116,0.927273 -2.03579,1.696901 -0.26156,0.442798 -0.39473,0.805086 -0.29593,0.805086 0.0988,0 0.0682,0.148828 -0.0681,0.330731 -0.39231,0.52375 -0.47955,2.0548 -0.4636,8.135941 0.0167,6.37055 0.0916,6.69425 1.89086,8.17739 1.00547,0.82879 1.7475,1.0649 3.65047,1.16156 l 1.05833,0.0537 0.30155,3.34146 c 0.49309,5.4641 0.89876,6.06635 8.76927,13.01854 l 1.39789,1.23479 h 17.921642 17.921657 z"
         id="path8" /><path
         style="fill:#000000"
         d="m -4.6108314,136.3101 c 1.03803,-0.5567 1.86858,-1.92805 1.86799,-3.08428 -6e-4,-1.15047 -0.78694,-2.54676 -1.82466,-3.24 l -0.89902,-0.60059 -16.8280596,0.004 c -9.25543,0.002 -16.9563,0.0915 -17.11304,0.19843 -0.28433,0.19394 -5.12969,6.24776 -5.50272,6.87512 -0.15661,0.26339 3.83433,0.33073 19.60069,0.33073 18.6682396,0 19.8487596,-0.0276 20.6988196,-0.48347 z"
         id="path6" /><path
         style="fill:#22a3de;fill-opacity:1"
         d="m -45.869511,137.03339 c 0,-0.30959 4.3032,-5.88598 5.64672,-7.31743 l 0.80708,-0.85989 h 16.88993 c 13.8433096,0 17.0491396,0.0665 17.7725896,0.3688 2.18761,0.91404 3.23457,4.10255 1.96188,5.9749 -0.34384,0.50586 -1.0269,1.19047 -1.5179,1.52136 l -0.89273,0.6016 H -25.535721 c -14.53956,0 -20.33379,-0.0824 -20.33379,-0.28934 z"
         id="path5" /><path
         style="fill:#000000"
         d="m -11.218591,152.867 c 2.7896096,-1.43043 2.7843096,-5.18966 -0.009,-6.61417 -0.83984,-0.42824 -2.38237,-0.46264 -20.76522,-0.46302 l -19.85799,-4.1e-4 -0.80181,0.8599 c -0.81045,0.86915 -3.3387,3.996 -4.70652,5.82083 l -0.7437,0.99219 h 22.8618 22.86179 z"
         id="path4" /><path
         style="fill:#22a3de;fill-opacity:1"
         d="m -58.693501,153.74034 c -0.15316,-0.24782 4.02529,-5.76739 5.76868,-7.62021 l 0.80911,-0.8599 20.12258,0.004 20.12257,0.004 1.05294,0.59635 c 1.2742896,0.72172 2.2440496,2.32702 2.2499996,3.72454 0.006,1.32934 -0.91906,2.95122 -2.1022296,3.68712 l -0.93612,0.58224 -23.46274,0.0717 c -15.2938,0.0467 -23.51915,-0.0196 -23.62479,-0.19053 z"
         id="path3" /><path
         style="fill:#000000"
         d="m -81.234651,173.35352 c 3.24865,-1.61641 3.08443,-1.42715 18.0616,-20.81725 7.83559,-10.1443 14.15089,-18.33931 18.75838,-24.34166 7.55946,-9.84802 24.21246,-31.23994 28.00517,-35.97457 1.97783,-2.469034 3.67089,-4.829826 3.76234,-5.246204 0.4656,-2.119855 -0.86827,-3.890683 -2.93064,-3.890683 -0.6342,0 -1.44436,0.110736 -1.80034,0.246081 -1.05498,0.401104 -8.36741,7.382374 -24.52677,23.416046 -22.47952,22.30467 -43.326082,42.66827 -44.925174,43.88437 -2.394625,1.82111 -3.717448,1.51314 -7.590468,-1.76713 -3.182181,-2.69517 -8.033977,-6.98444 -12.170837,-10.75974 -2.32833,-2.12484 -5.43206,-4.92577 -6.89718,-6.2243 -1.46511,-1.29852 -4.2404,-3.81356 -6.16729,-5.58898 -2.73136,-2.51662 -3.82288,-3.34753 -4.95285,-3.77031 -4.01553,-1.5024 -7.19398,0.16548 -7.45776,3.91341 -0.0903,1.28345 -0.006,1.64346 0.5924,2.51939 1.38953,2.03511 31.30945,36.31773 35.322064,40.47248 4.095223,4.24028 6.240408,5.29174 10.419443,5.10707 2.094942,-0.0926 2.562526,-0.21504 4.497912,-1.17802 z"
         id="path2" /><path
         style="fill:#22a4de;fill-opacity:1"
         d="m -89.909582,174.59902 c -3.466094,-1.19188 -4.906686,-2.56963 -16.322358,-15.61036 -14.46533,-16.52453 -25.44608,-29.2229 -25.94236,-30.0003 -0.7859,-1.23108 -0.57499,-3.94851 0.41763,-5.38085 1.09869,-1.58542 2.63126,-2.24783 4.87008,-2.10494 2.63613,0.16825 3.81775,0.87995 8.20324,4.94093 2.14012,1.98175 4.84095,4.43663 6.00185,5.45528 1.16089,1.01864 3.60164,3.2213 5.42388,4.89479 9.03578,8.29819 15.036922,13.38423 16.617916,14.08388 2.076649,0.91899 2.455089,0.63834 12.894213,-9.56233 15.01989,-14.6768 38.58953,-37.89725 43.78223,-43.13359 6.83898,-6.896457 14.25181,-13.937255 15.72937,-14.939954 1.33757,-0.907701 3.67849,-0.974326 4.74544,-0.135061 1.52545,1.199919 1.92691,3.350547 0.93054,4.984934 -0.3042,0.49899 -1.95527,2.642115 -3.66904,4.7625 -3.19562,3.953831 -21.10396,26.966101 -29.37798,37.750811 -4.63782,6.04513 -7.45592,9.70151 -16.80146,21.79922 -15.0588,19.4935 -14.67616,19.03298 -17.17841,20.67465 -3.119932,2.04691 -7.092451,2.63189 -10.324781,1.52039 z"
         id="path1" /></g></g></svg>
